<svg version="1.1" id="Layer_1" xmlns="http://www.w3.org/2000/svg" x="0" y="0" viewBox="0 0 64 64" style="enable-background:new 0 0 64 64" xml:space="preserve"><style>.st4{fill:#fdc88d}.st17{fill:none;stroke:#000;stroke-width:2;stroke-linecap:round;stroke-linejoin:round;stroke-miterlimit:10}</style><g id="Vector"><path class="st4" d="M47.26 20.98a20.638 20.638 0 0 1-1.39 7.51c-1.66 4.23-4.69 7.51-8.38 8.99-1.4.57-2.91.87-4.47.87-1.69 0-3.33-.37-4.84-1.02-3.51-1.54-6.38-4.71-7.98-8.75-.81-2.03-1.3-4.28-1.41-6.66-.01-.31-.02-.62-.02-.95 12.31-2.49 13.17-10.32 13.17-10.32s6.59 9.65 15.32 10.33z"/><path d="M47.26 20.98c-8.73-.68-15.32-10.32-15.32-10.32s-.86 7.83-13.17 10.32c0-9.61 6.38-17.39 14.25-17.39 7.86 0 14.24 7.78 14.24 17.39z" style="fill:#2d2d2d"/><path class="st4" d="M50.73 25.59c0 2.04-1.35 3.68-3.01 3.68-.7 0-1.35-.29-1.85-.79.78-1.99 1.26-4.2 1.37-6.53.16-.03.32-.05.48-.05 1.66 0 3.01 1.65 3.01 3.69zM20.2 28.58c-.48.44-1.09.69-1.75.69-1.66 0-3.01-1.65-3.01-3.68 0-2.04 1.35-3.68 3.01-3.68.11 0 .23.01.33.02.12 2.38.61 4.63 1.42 6.65z"/><path d="M55 48.76v6.79c0 3.37-2.74 6.11-6.11 6.11H16.71c-3.37 0-6.11-2.74-6.11-6.11v-6.79c0-3.37 2.74-6.11 6.11-6.11h11.47l4.62 6.4 4.69-6.4H48.9c3.37 0 6.1 2.74 6.1 6.11z" style="fill:#47c8f5"/><path class="st4" d="M37.49 37.48v5.17l-4.69 6.4-4.62-6.4v-5.32c1.51.66 3.15 1.02 4.84 1.02 1.56 0 3.07-.3 4.47-.87z"/><circle cx="44.64" cy="53.42" r="2.62" style="fill:#bcbcbc"/><path d="M18.55 56.04h-3.1c-.55-4.7 2.47-8.15 4.87-8.22 2.42-.08 5.68 3.23 5.35 8.02h-3.04" style="fill:none"/></g><g id="Line"><path class="st17" d="M47.26 20.98a20.638 20.638 0 0 1-1.39 7.51c-1.66 4.23-4.69 7.51-8.38 8.99-1.4.57-2.91.87-4.47.87-1.69 0-3.33-.37-4.84-1.02-3.51-1.54-6.38-4.71-7.98-8.75-.81-2.03-1.3-4.28-1.41-6.66-.01-.31-.02-.62-.02-.95 12.31-2.49 13.17-10.32 13.17-10.32s6.59 9.65 15.32 10.33z"/><path class="st17" d="M47.26 20.98c-8.73-.68-15.32-10.32-15.32-10.32s-.86 7.83-13.17 10.32c0-9.61 6.38-17.39 14.25-17.39 7.86 0 14.24 7.78 14.24 17.39zM50.73 25.59c0 2.04-1.35 3.68-3.01 3.68-.7 0-1.35-.29-1.85-.79.78-1.99 1.26-4.2 1.37-6.53.16-.03.32-.05.48-.05 1.66 0 3.01 1.65 3.01 3.69zM20.2 28.58c-.48.44-1.09.69-1.75.69-1.66 0-3.01-1.65-3.01-3.68 0-2.04 1.35-3.68 3.01-3.68.11 0 .23.01.33.02.12 2.38.61 4.63 1.42 6.65zM55 48.76v6.79c0 3.37-2.74 6.11-6.11 6.11H16.71c-3.37 0-6.11-2.74-6.11-6.11v-6.79c0-3.37 2.74-6.11 6.11-6.11h11.47l4.62 6.4 4.69-6.4H48.9c3.37 0 6.1 2.74 6.1 6.11z"/><path class="st17" d="M37.49 37.48v5.17l-4.69 6.4-4.62-6.4v-5.32c1.51.66 3.15 1.02 4.84 1.02 1.56 0 3.07-.3 4.47-.87zM32.8 49.05v12.6"/><circle class="st17" cx="44.64" cy="53.42" r="2.62"/><path class="st17" d="M44.64 50.79v-8.14M20.2 42.65v4.85M18.55 56.04h-3.1c-.55-4.7 2.47-8.15 4.87-8.22 2.42-.08 5.68 3.23 5.35 8.02h-3.04"/></g><path d="M48.9 42.65H37.49v-5.17c3.69-1.49 6.72-4.76 8.38-8.99.51.5 1.15.79 1.85.79 1.66 0 3.01-1.65 3.01-3.68 0-2.04-1.35-3.68-3.01-3.68-.16 0-.32.02-.48.05.01-.32.02-.65.02-.98 0-9.57-6.33-17.32-14.15-17.38.15.17.32.34.53.51 1.36 1.12 2.99 1.6 4.19 2.98 1.59 1.84 2.82 4.31 3.84 6.5 1.91 4.09 2.96 8.7 2.15 13.14-.81 4.44-3.18 10.62-7.69 10.62v6.12c3.56 0 6.89 2.74 9.18 5.47 2.29 2.73 3.46 6.37 3.2 9.92-.07.91-.21 1.86-.24 2.79h.62c3.37 0 6.11-2.74 6.11-6.11v-6.79c0-3.37-2.73-6.11-6.1-6.11z" style="opacity:.3" id="shadow"/><path d="M16.71 42.65h11.41v-5.17c-3.69-1.49-6.72-4.76-8.38-8.99-.51.5-1.15.79-1.85.79-1.66 0-3.01-1.65-3.01-3.68 0-2.04 1.35-3.68 3.01-3.68.16 0 .32.02.48.05-.01-.32-.02-.65-.02-.98 0-9.57 6.33-17.32 14.15-17.38-.15.17-.32.34-.53.51-1.36 1.12-2.99 1.6-4.19 2.98-1.59 1.84-2.82 4.31-3.84 6.5-1.91 4.09-2.96 8.7-2.15 13.14.81 4.44 3.18 10.62 7.69 10.62v6.12c-3.56 0-6.89 2.74-9.18 5.47-2.29 2.73-3.46 6.37-3.2 9.92.07.91.21 1.86.24 2.79h-.62c-3.37 0-6.11-2.74-6.11-6.11v-6.79c-.01-3.37 2.73-6.11 6.1-6.11z" style="opacity:.3;fill:#fff" id="Highligth"/></svg>